<?xml version="1.0" encoding="UTF-8" standalone="no"?>
<svg width="262px" height="60px" viewBox="0 0 262 60" version="1.1" xmlns="http://www.w3.org/2000/svg" xmlns:xlink="http://www.w3.org/1999/xlink">
    <!-- Generator: Sketch 50.2 (55047) - http://www.bohemiancoding.com/sketch -->
    <title>positive</title>
    <desc>Created with Sketch.</desc>
    <defs>
        <polygon id="path-1" points="0 1.308 56.693 1.308 56.693 58 0 58"></polygon>
    </defs>
    <g id="positive" stroke="none" stroke-width="1" fill="none" fill-rule="evenodd">
        <g id="logo">
            <g id="Group-3" stroke-width="1" transform="translate(0.000000, 0.692000)">
                <mask id="mask-2" fill="white">
                    <use xlink:href="#path-1"></use>
                </mask>
                <g id="Clip-2"></g>
                <path d="M28.345,2.0986 C20.983,2.0986 14.065,4.9646 8.861,10.1686 C3.655,15.3726 0.791,22.2946 0.791,29.6546 C0.791,37.0146 3.655,43.9346 8.861,49.1406 C14.065,54.3446 20.985,57.2106 28.345,57.2106 C35.707,57.2106 42.627,54.3446 47.831,49.1406 C53.039,43.9346 55.903,37.0146 55.903,29.6546 C55.903,22.2946 53.039,15.3726 47.831,10.1686 C42.627,4.9646 35.707,2.0986 28.345,2.0986 M28.345,58.0006 C20.775,58.0006 13.657,55.0526 8.303,49.6986 C2.949,44.3426 -0.001,37.2246 -0.001,29.6546 C-0.001,22.0826 2.949,14.9646 8.303,9.6106 C13.655,4.2566 20.775,1.3066 28.345,1.3066 C35.917,1.3066 43.037,4.2566 48.389,9.6106 C53.743,14.9646 56.693,22.0826 56.693,29.6546 C56.693,37.2246 53.743,44.3426 48.389,49.6986 C43.035,55.0526 35.917,58.0006 28.345,58.0006" id="Fill-1" fill="#1D1D1B" mask="url(#mask-2)"></path>
            </g>
            <path d="M29.2338,5.1538 C27.7078,5.1538 26.2958,5.4158 24.9638,5.7218 C20.9978,6.6418 15.4058,8.6018 11.2858,12.7198 C6.7478,17.2618 3.8378,23.0418 3.5038,28.1858 C3.3178,31.0298 4.2558,33.4458 5.2918,35.6318 C6.5238,38.2198 7.2458,40.7538 8.0118,43.4378 C9.3858,48.2558 12.3558,51.2258 17.3718,52.8538 C22.5718,54.5398 28.1438,54.9618 32.6618,54.0198 C42.9258,51.8718 50.8078,44.4858 52.7458,35.1958 C55.4418,22.2598 44.3558,12.5498 39.4638,8.9758 C37.0518,7.2138 34.6458,6.0718 32.1058,5.4798 C31.1038,5.2478 30.1478,5.1538 29.2338,5.1538 M27.5998,55.1038 C24.2318,55.1038 20.6278,54.5298 17.1898,53.4158 C11.9678,51.7198 8.8778,48.6238 7.4618,43.6678 C6.6838,40.9418 5.9658,38.4298 4.7578,35.8858 C3.6858,33.6278 2.7198,31.1258 2.9118,28.1478 C3.2558,22.8638 6.2298,16.9418 10.8678,12.3018 C15.0878,8.0838 20.7898,6.0818 24.8318,5.1458 C27.0278,4.6358 29.4458,4.2558 32.2398,4.9038 C34.8598,5.5138 37.3358,6.6898 39.8118,8.4998 C44.7958,12.1398 56.0898,22.0438 53.3238,35.3178 C51.3398,44.8358 43.2758,52.4038 32.7838,54.5998 C31.1658,54.9378 29.4158,55.1038 27.5998,55.1038" id="Fill-4" fill="#1D1D1B"></path>
            <path d="M29.6712,7.5444 C28.6332,7.5444 27.5932,7.7764 26.3872,8.1524 C21.7392,9.5904 16.9892,11.3724 13.7492,14.6124 C12.0012,16.3584 6.2952,22.5184 6.1752,28.4684 C6.1292,30.7204 7.4032,32.3944 8.7532,34.1664 C10.0492,35.8644 11.3892,37.6224 11.5092,39.9564 C11.5512,40.7984 11.4472,41.6664 11.3412,42.5024 C11.1972,43.6924 11.0452,44.9224 11.3292,46.0564 C11.7252,47.6324 13.0992,48.9584 15.0952,49.6964 C18.9132,51.1064 23.4692,51.0524 27.4792,51.0064 L28.2192,51.0004 C37.4412,50.9024 47.0392,44.3084 49.6172,36.2964 C50.6212,33.1764 50.8352,30.5864 50.2572,28.5924 C49.8492,27.1864 49.0812,25.8884 48.3392,24.6304 C48.0032,24.0624 47.6552,23.4724 47.3452,22.8824 C45.8972,20.1224 43.7332,18.1264 41.4412,16.0144 C40.4632,15.1104 39.4492,14.1764 38.5052,13.1824 C38.2572,12.9224 38.0112,12.6584 37.7632,12.3924 C36.3412,10.8644 34.8712,9.2844 32.9832,8.3704 C31.7752,7.7844 30.7252,7.5444 29.6712,7.5444 M25.2312,51.5164 C21.7832,51.5164 18.1212,51.3384 14.9232,50.1584 C12.7732,49.3644 11.2892,47.9144 10.8512,46.1744 C10.5452,44.9524 10.7012,43.6764 10.8532,42.4444 C10.9552,41.6264 11.0572,40.7784 11.0172,39.9824 C10.9052,37.8004 9.6132,36.1024 8.3632,34.4624 C7.0212,32.7024 5.6332,30.8824 5.6832,28.4584 C5.8052,22.3244 11.6212,16.0444 13.3992,14.2644 C16.7152,10.9484 21.5332,9.1404 26.2412,7.6784 C28.7932,6.8924 30.6552,6.6964 33.1992,7.9264 C35.1672,8.8804 36.6692,10.4944 38.1232,12.0564 C38.3712,12.3224 38.6152,12.5864 38.8632,12.8444 C39.7952,13.8264 40.8012,14.7524 41.7772,15.6524 C43.9972,17.7004 46.2952,19.8184 47.7832,22.6524 C48.0852,23.2344 48.4292,23.8164 48.7632,24.3784 C49.5212,25.6644 50.3032,26.9904 50.7292,28.4564 C51.3372,30.5444 51.1212,33.2324 50.0872,36.4464 C47.4492,44.6444 37.6392,51.3944 28.2252,51.4924 L27.4852,51.5024 C26.7492,51.5084 25.9952,51.5164 25.2312,51.5164" id="Fill-6" fill="#1D1D1B"></path>
            <path d="M30.1692,9.7476 C29.6912,9.7476 29.1572,9.8556 28.5552,10.0976 C27.9732,10.3296 27.3692,10.5656 26.7492,10.8056 C23.0712,12.2316 18.9052,13.8496 16.2272,16.5256 C14.6592,18.0936 13.1092,20.0336 11.4852,22.4556 L11.3692,22.6316 C10.0652,24.5716 8.4432,26.9856 8.9512,29.3136 C9.2932,30.8916 10.7572,31.9256 12.1712,32.9276 C13.8792,34.1356 15.6472,35.3856 15.5752,37.6236 C15.5412,38.7656 14.9732,40.0216 14.4272,41.2336 C13.5792,43.1196 12.7032,45.0676 13.7432,46.6336 C15.5232,49.3116 20.4112,48.5596 23.6472,48.0596 C24.1672,47.9816 24.6472,47.9076 25.0652,47.8536 C25.7792,47.7656 26.5112,47.7136 27.2172,47.6676 C28.2072,47.6016 29.2272,47.5316 30.1952,47.3536 C32.2212,46.9816 34.2352,46.1056 36.1112,45.2096 C39.8732,43.4176 44.0592,41.1776 46.1432,37.2696 C47.2512,35.1936 48.2512,32.1016 47.7372,29.6516 C47.4532,28.2976 46.4412,27.1376 45.4612,26.0156 C45.0692,25.5676 44.7012,25.1436 44.3752,24.7076 L44.1512,24.4096 C43.0392,22.9136 42.0772,21.6216 40.5232,20.3956 C40.2532,20.1836 39.9792,19.9716 39.7112,19.7636 C38.3592,18.7176 36.9612,17.6396 35.8712,16.2696 C35.3112,15.5696 34.8292,14.6616 34.3612,13.7836 C33.2612,11.7176 32.2112,9.7476 30.1692,9.7476 M18.7892,48.9976 C16.5652,48.9976 14.4692,48.5316 13.3752,46.8796 C12.1992,45.1096 13.1272,43.0456 14.0232,41.0516 C14.5752,39.8236 15.0992,38.6616 15.1312,37.6096 C15.1952,35.6116 13.6012,34.4816 11.9152,33.2896 C10.4312,32.2396 8.8952,31.1536 8.5172,29.4076 C7.9692,26.8956 9.6492,24.3936 10.9992,22.3836 L11.1192,22.2076 C12.7572,19.7616 14.3252,17.7996 15.9132,16.2096 C18.6572,13.4676 22.8712,11.8336 26.5892,10.3916 C27.2072,10.1516 27.8092,9.9176 28.3892,9.6856 C31.9212,8.2636 33.4272,11.0876 34.7532,13.5756 C35.2312,14.4736 35.6852,15.3236 36.2152,15.9916 C37.2772,17.3196 38.5912,18.3376 39.9812,19.4116 C40.2532,19.6216 40.5272,19.8336 40.7972,20.0456 C42.3972,21.3096 43.3772,22.6236 44.5092,24.1456 L44.7312,24.4436 C45.0452,24.8656 45.4092,25.2836 45.7932,25.7256 C46.8112,26.8896 47.8632,28.0956 48.1712,29.5596 C48.7092,32.1256 47.6792,35.3336 46.5372,37.4776 C44.3872,41.5056 40.1272,43.7896 36.2992,45.6116 C34.3972,46.5196 32.3532,47.4096 30.2772,47.7896 C29.2832,47.9716 28.2492,48.0416 27.2492,48.1116 C26.5452,48.1576 25.8212,48.2056 25.1232,48.2936 C24.7072,48.3476 24.2312,48.4196 23.7152,48.4996 C22.2632,48.7236 20.4892,48.9976 18.7892,48.9976" id="Fill-8" fill="#1D1D1B"></path>
            <path d="M30.0404,12.0718 C29.7504,12.0718 29.4284,12.1118 29.0704,12.1898 C25.4384,12.9778 21.2484,15.8938 18.7064,18.4378 C16.8604,20.2798 15.4164,21.8598 14.1524,23.3998 L13.9284,23.6738 C12.7344,25.1198 10.9284,27.3078 11.6824,29.1058 C12.1484,30.2178 13.5164,30.9198 14.7224,31.5378 C15.0184,31.6898 15.3024,31.8358 15.5584,31.9798 C15.7964,32.1138 16.0944,32.2598 16.4224,32.4218 C17.7084,33.0518 19.4704,33.9158 19.8244,35.1578 C20.1444,36.2758 19.2464,37.5898 18.5864,38.5498 C18.4984,38.6778 18.4184,38.7958 18.3444,38.9078 C18.0224,39.3978 17.6664,39.8918 17.3244,40.3678 C16.5924,41.3858 15.8344,42.4378 15.3204,43.5558 C14.9164,44.4338 14.8924,45.0978 15.2484,45.5358 C16.1724,46.6678 19.5164,46.2398 21.3444,45.8078 C22.2484,45.5958 23.1604,45.3458 24.0404,45.1058 C25.1624,44.7978 26.3204,44.4798 27.4784,44.2338 C27.9224,44.1378 28.3624,44.0638 28.7964,43.9918 C29.7164,43.8378 30.5864,43.6938 31.4864,43.3518 C34.4984,42.2018 38.7844,40.2638 42.0784,37.5358 C43.8924,36.0338 44.9784,33.6478 45.0604,30.9878 C45.1164,29.1738 43.8804,28.1798 42.5724,27.1238 C42.3044,26.9098 42.0344,26.6918 41.7704,26.4638 C41.2484,26.0138 40.7924,25.5378 40.3484,25.0798 C39.6524,24.3558 38.9944,23.6698 38.1084,23.0898 C37.6384,22.7798 37.1344,22.4898 36.5984,22.1838 C35.5244,21.5658 34.4164,20.9278 33.5624,20.1078 C32.5864,19.1678 32.4524,17.5418 32.3204,15.9718 C32.1924,14.4618 32.0744,13.0338 31.2344,12.4118 C30.9264,12.1858 30.5324,12.0718 30.0404,12.0718 M17.7924,46.6598 C16.6184,46.6598 15.4924,46.4558 14.9424,45.7838 C14.4844,45.2218 14.4904,44.4158 14.9624,43.3898 C15.4944,42.2378 16.2604,41.1698 17.0024,40.1378 C17.3444,39.6658 17.6964,39.1758 18.0144,38.6918 C18.0884,38.5798 18.1724,38.4558 18.2624,38.3278 C18.8404,37.4818 19.7144,36.2058 19.4444,35.2678 C19.1384,34.1918 17.4684,33.3718 16.2484,32.7758 C15.9144,32.6118 15.6064,32.4598 15.3644,32.3218 C15.1124,32.1818 14.8324,32.0358 14.5424,31.8878 C13.2764,31.2398 11.8404,30.5038 11.3184,29.2578 C10.4744,27.2398 12.3684,24.9438 13.6244,23.4238 L13.8484,23.1498 C15.1164,21.5998 16.5744,20.0118 18.4264,18.1578 C20.8224,15.7658 25.0224,12.6638 28.9884,11.8038 C30.0744,11.5718 30.8844,11.6638 31.4684,12.0958 C32.4524,12.8238 32.5804,14.3358 32.7144,15.9398 C32.8384,17.4378 32.9684,18.9858 33.8364,19.8218 C34.6544,20.6098 35.7444,21.2358 36.7964,21.8418 C37.3124,22.1378 37.8444,22.4458 38.3264,22.7618 C39.2484,23.3638 39.9524,24.0978 40.6344,24.8058 C41.0704,25.2598 41.5184,25.7258 42.0284,26.1658 C42.2884,26.3898 42.5564,26.6058 42.8204,26.8178 C44.2064,27.9358 45.5164,28.9898 45.4544,30.9998 C45.3704,33.7738 44.2304,36.2678 42.3304,37.8418 C38.9964,40.6018 34.6664,42.5618 31.6264,43.7178 C30.6904,44.0738 29.8024,44.2238 28.8604,44.3798 C28.4324,44.4518 28.0004,44.5258 27.5604,44.6178 C26.4144,44.8638 25.2584,45.1798 24.1444,45.4858 C23.2604,45.7258 22.3444,45.9778 21.4364,46.1918 C20.9464,46.3078 19.3304,46.6598 17.7924,46.6598" id="Fill-10" fill="#1D1D1B"></path>
            <path d="M30.4466,14.4352 C30.2846,14.4352 30.1006,14.4572 29.8966,14.4992 C28.5686,14.7772 27.2626,15.7372 26.1086,16.5852 C25.8646,16.7632 25.6266,16.9392 25.3966,17.1032 C25.1566,17.2732 24.9146,17.4412 24.6686,17.6112 C23.4606,18.4552 22.2106,19.3232 21.1866,20.3472 C20.9266,20.6072 20.4826,20.9892 19.9166,21.4752 C17.9606,23.1492 14.3206,26.2732 14.2426,28.2092 C14.2306,28.5792 14.3446,28.8852 14.5966,29.1392 C15.4006,29.9452 16.8706,30.4372 18.1646,30.8752 C18.6606,31.0412 19.1286,31.1972 19.5306,31.3612 C19.7526,31.4532 20.0726,31.5572 20.4446,31.6772 C21.8106,32.1192 23.6746,32.7232 24.0726,33.7232 C24.4806,34.7412 23.3446,35.8932 22.5926,36.6552 C22.4626,36.7912 22.3406,36.9112 22.2426,37.0192 C21.6086,37.7172 20.9606,38.4012 20.3126,39.0872 C19.5646,39.8812 18.7906,40.6992 18.0526,41.5232 C17.9706,41.6132 17.8746,41.7152 17.7666,41.8252 C17.0966,42.5272 16.0846,43.5832 16.6966,44.3572 C17.3446,45.1772 19.0906,44.4912 20.0286,44.1212 C20.1526,44.0712 20.2606,44.0292 20.3606,43.9912 C27.7326,41.2272 33.8266,38.6452 39.6206,35.0312 C41.2946,33.9852 42.4046,32.8552 42.3906,30.7312 C42.3786,29.2432 40.9086,28.5372 39.4886,27.8552 C39.1006,27.6692 38.7386,27.4932 38.4066,27.3052 C37.8686,26.9952 37.3726,26.6532 36.8926,26.3212 C36.2266,25.8652 35.5966,25.4312 34.8546,25.0672 C34.4646,24.8772 34.0006,24.6912 33.5086,24.4932 C32.3586,24.0352 31.0546,23.5152 30.2926,22.7272 C29.2046,21.6032 29.9006,19.9312 30.4606,18.5872 C30.5706,18.3232 30.6726,18.0712 30.7566,17.8432 C31.0886,16.9292 31.6806,15.3012 31.1526,14.6892 C31.0046,14.5212 30.7686,14.4352 30.4466,14.4352 M17.6746,45.0932 C17.1766,45.0932 16.7306,44.9552 16.4246,44.5692 C15.6286,43.5612 16.8106,42.3252 17.5166,41.5872 C17.6206,41.4792 17.7166,41.3812 17.7966,41.2912 C18.5366,40.4652 19.3126,39.6432 20.0626,38.8512 C20.7086,38.1672 21.3546,37.4832 21.9886,36.7872 C22.0886,36.6772 22.2126,36.5532 22.3486,36.4132 C23.0366,35.7172 24.0746,34.6592 23.7526,33.8492 C23.4126,33.0012 21.5646,32.4012 20.3386,32.0052 C19.9606,31.8832 19.6346,31.7772 19.4006,31.6812 C19.0066,31.5212 18.5466,31.3652 18.0566,31.2012 C16.7246,30.7532 15.2126,30.2452 14.3526,29.3812 C14.0326,29.0592 13.8806,28.6612 13.9006,28.1952 C13.9826,26.1072 17.5566,23.0432 19.6926,21.2132 C20.2506,20.7312 20.6926,20.3532 20.9426,20.1032 C21.9886,19.0592 23.2506,18.1792 24.4726,17.3272 C24.7166,17.1592 24.9586,16.9892 25.1966,16.8212 C25.4246,16.6592 25.6626,16.4832 25.9046,16.3072 C27.0846,15.4392 28.4226,14.4552 29.8246,14.1612 C30.5706,14.0032 31.1046,14.1072 31.4126,14.4632 C32.0726,15.2272 31.4626,16.9132 31.0946,17.9212 C30.9966,18.1952 30.8906,18.4512 30.7786,18.7192 C30.2566,19.9712 29.6106,21.5272 30.5406,22.4872 C31.2486,23.2212 32.5186,23.7272 33.6386,24.1752 C34.1366,24.3732 34.6046,24.5592 35.0066,24.7572 C35.7726,25.1332 36.4406,25.5932 37.0866,26.0392 C37.5646,26.3652 38.0526,26.7032 38.5786,27.0052 C38.8986,27.1872 39.2566,27.3612 39.6386,27.5432 C41.0826,28.2372 42.7226,29.0252 42.7366,30.7292 C42.7526,33.1452 41.3366,34.3672 39.8026,35.3232 C33.9866,38.9532 27.8726,41.5452 20.4826,44.3152 C20.3846,44.3512 20.2746,44.3932 20.1546,44.4412 C19.4746,44.7112 18.5026,45.0932 17.6746,45.0932" id="Fill-12" fill="#1D1D1B"></path>
            <path d="M30.1634,16.7184 L23.5614,22.1564 L16.9574,27.5924 C16.4754,27.9904 16.6314,28.7624 17.2314,28.9424 L27.8194,32.1244 C28.4134,32.3044 28.5734,33.0684 28.1034,33.4684 L18.0354,42.0484 C17.3054,42.6684 18.1154,43.8024 18.9394,43.3164 L29.3914,37.1424 L39.8474,30.9664 C40.4234,30.6264 40.3314,29.7644 39.6974,29.5524 L33.5074,27.4844 L27.3154,25.4184 C26.8254,25.2544 26.6254,24.6664 26.9174,24.2384 L31.3054,17.7604 C31.8114,17.0124 30.8594,16.1444 30.1634,16.7184" id="Fill-14" fill="#1D1D1B"></path>
            <path d="M94.138,10.5034 L93.06,10.5034 C92.518,10.5034 92.126,10.8734 92.126,11.3794 L92.126,28.5774 L71.06,28.5774 L71.06,11.3794 C71.06,10.8874 70.676,10.5034 70.182,10.5034 L69.05,10.5034 C68.51,10.5034 68.116,10.8734 68.116,11.3794 L68.116,49.3094 C68.116,49.8194 68.51,50.1894 69.05,50.1894 L70.182,50.1894 C70.676,50.1894 71.06,49.8014 71.06,49.3094 L71.06,31.3594 L92.126,31.3594 L92.126,49.3094 C92.126,49.8194 92.518,50.1894 93.06,50.1894 L94.138,50.1894 C94.68,50.1894 95.072,49.8194 95.072,49.3094 L95.072,11.3794 C95.072,10.8734 94.68,10.5034 94.138,10.5034" id="Fill-16" fill="#1D1D1B"></path>
            <path d="M127.2044,47.4078 L107.3644,47.4078 L107.3644,31.3598 L125.2624,31.3598 C125.8024,31.3598 126.1944,30.9898 126.1944,30.4818 L126.1944,29.4558 C126.1944,28.9478 125.8024,28.5778 125.2624,28.5778 L107.3644,28.5778 L107.3644,13.2838 L126.3964,13.2838 C126.9184,13.2838 127.2724,12.9318 127.2724,12.4058 L127.2724,11.3798 C127.2724,10.8558 126.9184,10.5038 126.3964,10.5038 L105.3524,10.5038 C104.8144,10.5038 104.4204,10.8718 104.4204,11.3798 L104.4204,49.3098 C104.4204,49.8198 104.8144,50.1898 105.3524,50.1898 L127.2044,50.1898 C127.7304,50.1898 128.0824,49.8358 128.0824,49.3098 L128.0824,48.2838 C128.0824,47.7598 127.7304,47.4078 127.2044,47.4078" id="Fill-18" fill="#1D1D1B"></path>
            <path d="M137.7356,13.2848 L147.5376,13.2848 C154.2176,13.2848 158.0456,16.5248 158.0456,22.1728 C158.0456,27.8688 154.3156,31.0048 147.5376,31.0048 L137.7356,31.0048 L137.7356,13.2848 Z M149.5836,33.6548 C156.7156,32.9368 160.9376,28.7048 160.9376,22.1728 C160.9376,14.9748 155.8016,10.5028 147.5376,10.5028 L135.7236,10.5028 C135.1856,10.5028 134.7916,10.8728 134.7916,11.3808 L134.7916,49.3108 C134.7916,49.8208 135.1856,50.1888 135.7236,50.1888 L136.8596,50.1888 C137.3496,50.1888 137.7356,49.8028 137.7356,49.3108 L137.7356,33.7888 L146.1336,33.7888 L158.3436,49.5948 C158.4656,49.9628 158.8336,50.1888 159.3036,50.1888 L160.7596,50.1888 C161.0636,50.1888 161.3216,50.0568 161.4656,49.8208 C161.6196,49.5708 161.6196,49.2528 161.4116,48.8628 L149.5836,33.6548 Z" id="Fill-20" fill="#1D1D1B"></path>
            <path d="M190.4818,10.5034 L163.6678,10.5034 C163.1418,10.5034 162.7878,10.8554 162.7878,11.3794 L162.7878,12.4054 C162.7878,12.9314 163.1418,13.2854 163.6678,13.2854 L175.5238,13.2854 L175.5238,49.3094 C175.5238,49.8194 175.9158,50.1894 176.4538,50.1894 L177.5878,50.1894 C178.0798,50.1894 178.4658,49.8014 178.4658,49.3094 L178.4658,13.2854 L190.4818,13.2854 C191.0238,13.2854 191.4158,12.9154 191.4158,12.4054 L191.4158,11.3794 C191.4158,10.8734 191.0238,10.5034 190.4818,10.5034" id="Fill-22" fill="#1D1D1B"></path>
            <path d="M219.179,47.4078 L196.739,47.4078 L219.481,12.8178 C219.507,12.7838 219.559,12.6438 219.573,12.6038 C219.621,12.4698 219.681,12.3058 219.681,12.0838 L219.681,11.3798 C219.681,10.8558 219.327,10.5038 218.803,10.5038 L194.361,10.5038 C193.835,10.5038 193.481,10.8558 193.481,11.3798 L193.481,12.4058 C193.481,12.9318 193.835,13.2838 194.361,13.2838 L215.723,13.2838 L192.993,47.8978 C192.797,48.0978 192.673,48.3898 192.673,48.6618 L192.673,49.3098 C192.673,49.8018 193.059,50.1898 193.553,50.1898 L219.179,50.1898 C219.671,50.1898 220.057,49.8018 220.057,49.3098 L220.057,48.2838 C220.057,47.7838 219.681,47.4078 219.179,47.4078" id="Fill-24" fill="#1D1D1B"></path>
            <path d="M250.1752,10.859 C250.0852,10.727 249.8732,10.503 249.4412,10.503 L248.2012,10.503 C247.7312,10.503 247.3652,10.733 247.2872,11.003 L235.7932,31.455 L224.3412,11.101 C224.2192,10.733 223.8752,10.503 223.4372,10.503 L222.1412,10.503 C221.7132,10.503 221.4972,10.727 221.4072,10.859 C221.3172,10.995 221.1912,11.285 221.3912,11.763 L234.3192,34.513 L234.3192,49.311 C234.3192,49.835 234.6732,50.189 235.1992,50.189 L236.3312,50.189 C236.8732,50.189 237.2652,49.819 237.2652,49.311 L237.2652,34.513 L250.2252,11.699 C250.3932,11.283 250.2672,10.993 250.1752,10.859" id="Fill-26" fill="#1D1D1B"></path>
            <path d="M257.5404,15.98 L257.8424,15.98 C258.1964,15.98 258.4844,15.86 258.4844,15.576 C258.4844,15.324 258.2984,15.156 257.8944,15.156 C257.7264,15.156 257.6064,15.172 257.5404,15.188 L257.5404,15.98 Z M257.5244,17.544 L256.8844,17.544 L256.8844,14.784 C257.1384,14.734 257.4904,14.7 257.9444,14.7 C258.4664,14.7 258.7004,14.784 258.9044,14.902 C259.0544,15.022 259.1724,15.24 259.1724,15.508 C259.1724,15.81 258.9364,16.046 258.6004,16.148 L258.6004,16.182 C258.8684,16.282 259.0204,16.484 259.1044,16.854 C259.1884,17.274 259.2404,17.442 259.3064,17.544 L258.6164,17.544 C258.5324,17.442 258.4844,17.19 258.3984,16.87 C258.3464,16.568 258.1784,16.434 257.8284,16.434 L257.5244,16.434 L257.5244,17.544 Z M255.8264,16.098 C255.8264,17.326 256.7344,18.3 257.9784,18.3 C259.1884,18.3 260.0824,17.326 260.0824,16.114 C260.0824,14.886 259.1884,13.894 257.9604,13.894 C256.7344,13.894 255.8264,14.886 255.8264,16.098 Z M260.7864,16.098 C260.7864,17.662 259.5604,18.89 257.9604,18.89 C256.3804,18.89 255.1184,17.662 255.1184,16.098 C255.1184,14.566 256.3804,13.34 257.9604,13.34 C259.5604,13.34 260.7864,14.566 260.7864,16.098 Z" id="Fill-28" fill="#1D1D1B"></path>
        </g>
    </g>
</svg>